# Blender v2.79 (sub 0) OBJ File: 'tardis.blend'
# www.blender.org
mtllib tardis_exterior.mtl
o Cube
v 0.619257 -0.500000 -0.620219
v 0.563013 1.499865 -0.563976
v 0.619257 -0.500000 0.617132
v 0.563014 1.499865 0.560889
v -0.618095 -0.500000 -0.620219
v -0.561852 1.499865 -0.563976
v -0.618095 -0.500000 0.617132
v -0.561852 1.499865 0.560889
v 0.506770 1.499865 -0.507733
v 0.506770 1.499865 0.504646
v -0.505608 1.499865 -0.507733
v -0.505608 1.499865 0.504646
v 0.506770 1.562500 -0.507733
v 0.506770 1.562500 0.504646
v -0.505608 1.562500 -0.507733
v -0.505608 1.562500 0.504646
v 0.456151 1.562500 -0.457114
v 0.456151 1.562500 0.454027
v -0.454990 1.562500 -0.457114
v -0.454989 1.562500 0.454027
v 0.456151 1.687500 -0.457114
v 0.456151 1.687500 0.454027
v -0.454990 1.687500 -0.457114
v -0.454989 1.687500 0.454027
v 0.619257 -0.437500 -0.620219
v 0.563014 -0.437500 0.560889
v -0.561852 -0.437500 0.560889
v -0.561852 -0.437500 -0.563976
v -0.618095 -0.437500 -0.620219
v 0.563013 -0.437500 -0.563976
v -0.618095 -0.437500 0.617132
v 0.619257 -0.437500 0.617132
v 0.506770 1.499865 0.560889
v 0.506770 1.499865 -0.563976
v 0.456151 1.499865 0.504646
v 0.456151 1.499865 -0.507733
v 0.456151 1.562500 0.504646
v 0.456151 1.562500 -0.507733
v 0.410594 1.562500 0.454027
v 0.410594 1.562500 -0.457114
v 0.410594 1.687500 0.454027
v 0.410594 1.687500 -0.457114
v 0.506770 -0.437500 -0.563976
v 0.506770 -0.437500 0.560889
v 0.557389 -0.437500 -0.620219
v 0.557389 -0.437500 0.617132
v 0.506770 1.402997 -0.563976
v 0.506770 1.402997 0.560889
v -0.508420 1.499865 0.560889
v -0.457520 1.499865 0.504646
v -0.457520 1.562500 0.504646
v -0.411710 1.562500 0.454027
v -0.411710 1.687500 0.454027
v -0.508420 -0.437500 0.560889
v -0.559321 -0.437500 0.617132
v -0.508420 1.402997 0.560889
v -0.508421 1.499865 -0.563976
v -0.457520 1.499865 -0.507733
v -0.457520 1.562500 -0.507733
v -0.411710 1.562500 -0.457114
v -0.411710 1.687500 -0.457114
v -0.508421 -0.437500 -0.563976
v -0.559321 -0.437500 -0.620219
v 0.506770 1.499865 0.623456
v 0.506770 1.402997 0.623456
v -0.508420 1.499865 0.623456
v -0.508420 1.402997 0.623456
v 0.563013 1.499865 -0.507733
v -0.561852 1.499865 -0.507733
v 0.506770 1.499865 -0.457114
v -0.505608 1.499865 -0.457114
v 0.506770 1.562500 -0.457114
v -0.505608 1.562500 -0.457114
v 0.456151 1.562500 -0.411557
v -0.454990 1.562500 -0.411557
v 0.456151 1.687500 -0.411557
v -0.454990 1.687500 -0.411557
v -0.561852 -0.437500 -0.507733
v 0.563013 -0.437500 -0.507733
v -0.618095 -0.437500 -0.558352
v 0.619257 -0.437500 -0.558352
v -0.561852 1.402997 -0.507733
v 0.563013 1.402997 -0.507733
v 0.563014 1.499865 0.507458
v 0.506770 1.499865 0.456558
v 0.506770 1.562500 0.456558
v 0.456151 1.562500 0.410747
v 0.456151 1.687500 0.410747
v 0.563014 -0.437500 0.507458
v 0.619257 -0.437500 0.558358
v 0.563014 1.402997 0.507458
v -0.561852 1.499865 0.507458
v -0.505608 1.499865 0.456558
v -0.505608 1.562500 0.456558
v -0.454989 1.562500 0.410747
v -0.454989 1.687500 0.410747
v -0.561852 -0.437500 0.507458
v -0.618095 -0.437500 0.558358
v -0.610421 1.499865 0.507458
v -0.610421 1.499865 -0.507733
v -0.610421 1.402997 0.507458
v -0.610421 1.402997 -0.507733
v -0.508421 1.499865 -0.612545
v 0.506770 1.499865 -0.612545
v -0.508421 1.402997 -0.612545
v 0.506770 1.402997 -0.612545
v 0.611582 1.499865 -0.507733
v 0.611582 1.402997 -0.507733
v 0.611583 1.499865 0.507458
v 0.611583 1.402997 0.507458
v 0.063081 1.687500 -0.064044
v 0.063081 1.875000 -0.064044
v 0.063081 1.687500 0.060956
v 0.063081 1.875000 0.060956
v -0.061919 1.687500 -0.064044
v -0.061919 1.875000 -0.064044
v -0.061919 1.687500 0.060956
v -0.061919 1.875000 0.060956
v -0.516603 -0.437500 0.507458
v -0.516603 1.402997 0.507458
v 0.517765 1.402997 -0.507733
v 0.517765 -0.437500 -0.507733
v 0.517765 -0.437500 0.507458
v 0.517765 1.402997 0.507458
v -0.508421 -0.437500 -0.518728
v -0.508421 1.402997 -0.518728
v -0.508421 1.402997 -0.563976
v -0.561852 1.402997 0.507458
vt 0.400000 0.320000
vt 0.410000 0.320000
vt 0.410000 0.480000
vt 0.400000 0.480000
vt 0.390000 0.330000
vt 0.390000 0.510000
vt 0.380000 0.500000
vt 0.380000 0.340000
vt 0.380000 0.500000
vt 0.370000 0.490000
vt 0.370000 0.350000
vt 0.380000 0.340000
vt 0.410000 0.480000
vt 0.410000 0.320000
vt 0.420000 0.320000
vt 0.420000 0.480000
vt 0.460000 0.460000
vt 0.440000 0.460000
vt 0.440000 0.320000
vt 0.460000 0.320000
vt 0.230000 0.350000
vt 0.220000 0.340000
vt 0.290000 0.410000
vt 0.230000 0.360000
vt 0.230000 0.350000
vt 0.240000 0.350000
vt 0.500000 0.320000
vt 0.500000 0.460000
vt 0.480000 0.460000
vt 0.480000 0.320000
vt 0.320000 0.200000
vt 0.500000 0.200000
vt 0.500000 0.210000
vt 0.320000 0.210000
vt 0.320000 0.210000
vt 0.500000 0.210000
vt 0.500000 0.220000
vt 0.320000 0.220000
vt 0.670000 0.010000
vt 0.680000 0.000000
vt 0.680000 0.180000
vt 0.670000 0.170000
vt 0.510000 0.010000
vt 0.500000 0.000000
vt 0.830000 0.000000
vt 0.830000 0.340000
vt 0.820000 0.340000
vt 0.820000 0.000000
vt 0.710000 0.000000
vt 0.710000 0.340000
vt 0.700000 0.340000
vt 0.700000 0.000000
vt 0.740000 0.000000
vt 0.750000 0.000000
vt 0.750000 0.340000
vt 0.740000 0.340000
vt 0.790000 0.000000
vt 0.790000 0.340000
vt 0.780000 0.340000
vt 0.780000 0.000000
vt 0.770000 0.340000
vt 0.770000 0.000000
vt 0.830000 0.320000
vt 0.840000 0.000000
vt 0.840000 0.320000
vt 0.310000 0.410000
vt 0.360000 0.350000
vt 0.210000 0.510000
vt 0.220000 0.500000
vt 0.420000 0.320000
vt 0.430000 0.320000
vt 0.430000 0.480000
vt 0.420000 0.480000
vt 0.220000 0.500000
vt 0.230000 0.490000
vt 0.370000 0.360000
vt 0.370000 0.350000
vt 0.480000 0.460000
vt 0.460000 0.460000
vt 0.460000 0.320000
vt 0.480000 0.320000
vt 0.320000 0.180000
vt 0.500000 0.180000
vt 0.500000 0.190000
vt 0.320000 0.190000
vt 0.500000 0.180000
vt 0.510000 0.170000
vt 0.690000 0.340000
vt 0.690000 0.000000
vt 0.020000 0.330000
vt 0.180000 0.330000
vt 0.180000 0.340000
vt 0.020000 0.340000
vt 0.220000 0.340000
vt 0.210000 0.330000
vt 0.870000 0.000000
vt 0.870000 0.020000
vt 0.860000 0.020000
vt 0.860000 0.000000
vt 0.640000 0.920000
vt 0.640000 1.000000
vt -0.000000 1.000000
vt 0.000000 0.920000
vt 0.020000 0.320000
vt 0.180000 0.320000
vt 0.860000 0.020000
vt 0.860000 0.000000
vt 0.870000 0.000000
vt 0.870000 0.020000
vt 0.220000 0.510000
vt 0.380000 0.510000
vt 0.380000 0.520000
vt 0.220000 0.520000
vt 0.320000 0.000000
vt 0.500000 0.000000
vt 0.370000 0.480000
vt 0.310000 0.430000
vt 0.999900 0.999900
vt 0.000100 0.999900
vt 0.000100 0.000100
vt 0.999900 0.000100
vt 0.810000 0.340000
vt 0.810000 0.000000
vt 0.730000 -0.000000
vt 0.730000 0.336787
vt 0.720000 0.320000
vt 0.720000 -0.000000
vt 0.290000 0.430000
vt 0.230000 0.480000
vt 0.190000 0.500000
vt 0.190000 0.340000
vt 0.200000 0.340000
vt 0.200000 0.500000
vt 0.440000 0.320000
vt 0.440000 0.480000
vt 0.430000 0.480000
vt 0.430000 0.320000
vt 0.240000 0.490000
vt 0.230000 0.490000
vt 0.500000 0.460000
vt 0.500000 0.320000
vt 0.520000 0.320000
vt 0.520000 0.460000
vt 0.320000 0.190000
vt 0.500000 0.190000
vt 0.500000 0.200000
vt 0.320000 0.200000
vt 0.740000 0.000000
vt 0.740000 0.340000
vt 0.730000 0.340000
vt 0.360000 0.490000
vt 0.370000 0.490000
vt 0.790000 0.336952
vt 0.800000 0.000000
vt 0.800000 0.320000
vt 0.870000 0.000000
vt 0.870000 0.020000
vt 0.860000 0.020000
vt 0.860000 0.000000
vt 0.640000 0.920000
vt 0.640000 1.000000
vt -0.000000 1.000000
vt 0.000000 0.920000
vt 0.390000 0.500000
vt 0.390000 0.340000
vt 0.400000 0.340000
vt 0.400000 0.500000
vt 0.870000 0.000000
vt 0.870000 0.020000
vt 0.860000 0.020000
vt 0.860000 0.000000
vt 0.860000 0.020000
vt 0.860000 0.000000
vt 0.870000 0.000000
vt 0.870000 0.020000
vt 0.860000 0.020000
vt 0.860000 0.000000
vt 0.870000 0.000000
vt 0.870000 0.020000
vt 0.640000 0.920000
vt 0.640000 1.000000
vt -0.000000 1.000000
vt 0.000000 0.920000
vt 0.380000 0.330000
vt 0.220000 0.330000
vt 0.220000 0.320000
vt 0.380000 0.320000
vt 0.870000 0.000000
vt 0.870000 0.020000
vt 0.860000 0.020000
vt 0.860000 0.000000
vt 0.020000 0.510000
vt 0.180000 0.510000
vt 0.180000 0.520000
vt 0.020000 0.520000
vt 0.640000 0.920000
vt 0.640000 1.000000
vt -0.000000 1.000000
vt 0.000000 0.920000
vt 0.860000 0.020000
vt 0.860000 0.000000
vt 0.870000 0.000000
vt 0.870000 0.020000
vt 0.010000 0.340000
vt 0.010000 0.500000
vt -0.000000 0.500000
vt -0.000000 0.340000
vt 0.210000 0.340000
vt 0.210000 0.500000
vt 0.200000 0.500000
vt 0.200000 0.340000
vt 0.540000 0.320000
vt 0.540000 0.350000
vt 0.520000 0.350000
vt 0.520000 0.320000
vt 0.540000 0.380000
vt 0.540000 0.410000
vt 0.520000 0.410000
vt 0.520000 0.380000
vt 0.540000 0.350000
vt 0.540000 0.380000
vt 0.520000 0.380000
vt 0.520000 0.350000
vt 0.540000 0.410000
vt 0.540000 0.440000
vt 0.520000 0.440000
vt 0.520000 0.410000
vt 0.310000 0.430000
vt 0.290000 0.430000
vt 0.290000 0.410000
vt 0.310000 0.410000
vt 0.320000 0.000000
vt 0.320000 0.320000
vt 0.160000 0.320000
vt 0.160000 0.000000
vt 0.180000 0.500000
vt 0.670000 0.020000
vt 0.670000 0.160000
vt 0.660000 0.160000
vt 0.660000 0.020000
vt 0.710000 0.336875
vt 0.720000 0.000000
vt 0.720000 0.319922
vt 0.320000 0.000000
vt 0.320000 0.320000
vt 0.160000 0.320000
vt 0.160000 0.000000
vt 0.810000 0.320000
vt 0.800000 0.320000
vt 0.800000 -0.000000
vt 0.020000 0.500000
vt 0.510000 0.160000
vt 0.510000 0.020000
vt 0.520000 0.020000
vt 0.520000 0.160000
vt 0.000000 0.320000
vt 0.000000 0.000000
vt 0.690000 0.336875
vt 0.680000 0.320000
vt 0.680000 -0.000000
vt 0.520000 0.010000
vt 0.660000 0.010000
vt 0.320000 0.000000
vt 0.320000 0.320000
vt 0.160000 0.320000
vt 0.160000 0.000000
vt 0.660000 0.170000
vt 0.520000 0.170000
vt 0.770000 0.336639
vt 0.760000 0.320124
vt 0.760000 0.000000
vt 0.750000 0.336933
vt 0.750000 0.000000
vt 0.760000 0.000000
vt 0.760000 0.319876
vn 0.0000 0.0000 -1.0000
vn 0.0000 1.0000 0.0000
vn -1.0000 0.0000 0.0000
vn 0.0000 0.0000 1.0000
vn 1.0000 0.0000 0.0000
vn -0.9814 0.0000 0.1919
vn 0.0000 -1.0000 -0.0000
vn -1.0000 0.0000 -0.0080
vn 0.2016 0.0000 0.9795
vn 0.0107 0.0000 -0.9999
vn -0.9795 0.0000 -0.2016
vn 0.9885 0.0000 -0.1514
usemtl Material.001
s off
f 11/1/1 15/2/1 13/3/1 9/4/1
f 6/5/2 8/6/2 12/7/2 11/8/2
f 16/9/2 20/10/2 19/11/2 15/12/2
f 11/13/3 12/14/3 16/15/3 15/16/3
f 19/17/1 23/18/1 21/19/1 17/20/1
f 19/11/2 17/21/2 13/22/2 15/12/2
f 111/23/2 76/24/2 21/25/2 42/26/2
f 19/27/3 20/28/3 24/29/3 23/30/3
f 7/31/4 3/32/4 32/33/4 31/34/4
f 3/35/5 1/36/5 25/37/5 32/38/5
f 28/39/2 29/40/2 31/41/2 27/42/2
f 28/39/2 30/43/2 25/44/2 29/40/2
f 43/45/1 34/46/1 2/47/1 30/48/1
f 78/49/3 69/50/3 6/51/3 28/52/3
f 54/53/4 49/54/4 8/55/4 27/56/4
f 89/57/5 84/58/5 4/59/5 26/60/5
f 26/60/4 4/59/4 33/61/4 44/62/4
f 47/63/6 43/45/6 122/64/6 121/65/6
f 115/66/2 111/23/2 42/26/2 61/67/2
f 4/68/2 10/69/2 12/7/2 8/6/2
f 10/70/4 14/71/4 16/72/4 12/73/4
f 16/9/2 14/74/2 18/75/2 20/10/2
f 77/76/2 115/66/2 61/67/2 23/77/2
f 18/78/4 22/79/4 24/80/4 20/81/4
f 1/82/1 5/83/1 29/84/1 25/85/1
f 27/42/2 31/41/2 32/86/2 26/87/2
f 28/52/1 6/51/1 57/88/1 62/89/1
f 48/90/7 56/91/7 120/92/7 124/93/7
f 9/94/2 2/95/2 6/5/2 11/8/2
f 48/96/5 33/97/5 64/98/5 65/99/5
f 65/100/4 64/101/4 66/102/4 67/103/4
f 56/91/7 48/90/7 65/104/7 67/105/7
f 49/106/3 56/107/3 67/108/3 66/109/3
f 33/110/2 49/111/2 66/112/2 64/113/2
f 3/114/7 7/115/7 5/83/7 1/82/7
f 96/116/2 117/117/2 115/66/2 77/76/2
f 117/118/2 113/119/2 111/120/2 115/121/2
f 30/48/5 2/47/5 68/122/5 79/123/5
f 97/124/1 92/125/1 120/126/1 119/127/1
f 113/128/2 88/129/2 76/24/2 111/23/2
f 82/130/7 128/131/7 101/132/7 102/133/7
f 2/95/2 9/94/2 10/69/2 4/68/2
f 13/134/5 14/135/5 10/136/5 9/137/5
f 13/22/2 17/21/2 18/75/2 14/74/2
f 41/138/2 22/139/2 88/129/2 113/128/2
f 21/140/5 22/141/5 18/142/5 17/143/5
f 5/144/3 7/145/3 31/146/3 29/147/3
f 26/87/2 32/86/2 25/44/2 30/43/2
f 27/148/3 8/149/3 92/150/3 97/124/3
f 53/151/2 41/138/2 113/128/2 117/117/2
f 24/152/2 53/151/2 117/117/2 96/116/2
f 84/153/1 89/57/1 123/154/1 124/155/1
f 83/156/1 68/157/1 107/158/1 108/159/1
f 101/160/3 99/161/3 100/162/3 102/163/3
f 92/164/2 69/165/2 100/166/2 99/167/2
f 128/168/4 92/169/4 99/170/4 101/171/4
f 69/172/1 82/173/1 102/174/1 100/175/1
f 34/176/5 47/177/5 106/178/5 104/179/5
f 105/180/1 103/181/1 104/182/1 106/183/1
f 57/184/2 34/185/2 104/186/2 103/187/2
f 127/188/3 57/189/3 103/190/3 105/191/3
f 47/192/7 127/193/7 105/194/7 106/195/7
f 108/196/5 107/197/5 109/198/5 110/199/5
f 84/200/4 91/201/4 110/202/4 109/203/4
f 91/204/7 83/205/7 108/206/7 110/207/7
f 68/208/2 84/209/2 109/210/2 107/211/2
f 111/212/5 112/213/5 114/214/5 113/215/5
f 113/216/4 114/217/4 118/218/4 117/219/4
f 117/220/3 118/221/3 116/222/3 115/223/3
f 115/224/1 116/225/1 112/226/1 111/227/1
f 118/228/2 114/229/2 112/230/2 116/231/2
f 119/232/8 120/233/8 126/234/8 125/235/8
f 128/131/7 82/130/7 126/236/7 120/92/7
f 78/237/2 97/238/2 119/239/2 125/240/2
f 69/241/9 78/49/9 125/242/9 126/243/9
f 122/244/5 121/245/5 124/246/5 123/247/5
f 79/123/4 83/248/4 121/249/4 122/250/4
f 83/205/7 91/204/7 124/93/7 121/251/7
f 89/252/2 79/253/2 122/254/2 123/255/2
f 125/235/10 126/234/10 121/256/10 122/257/10
f 62/89/5 57/258/5 126/259/5 125/260/5
f 127/193/7 47/192/7 121/251/7 126/236/7
f 43/261/2 62/262/2 125/240/2 122/254/2
f 123/263/4 124/264/4 120/265/4 119/266/4
f 54/267/2 44/268/2 123/255/2 119/239/2
f 44/62/11 33/269/11 124/270/11 123/271/11
f 49/272/12 54/273/12 119/274/12 120/275/12
l 85 10
l 50 12
l 71 11
l 36 9
l 86 14
l 51 16
l 73 15
l 38 13
l 87 18
l 52 20
l 75 19
l 40 17
l 45 25
l 80 29
l 90 32
l 55 31
l 10 35
l 58 36
l 14 37
l 59 38
l 18 39
l 60 40
l 63 45
l 32 46
l 35 50
l 37 51
l 39 52
l 46 55
l 11 58
l 15 59
l 19 60
l 29 63
l 9 70
l 93 71
l 13 72
l 94 73
l 17 74
l 95 75
l 98 80
l 25 81
l 70 85
l 72 86
l 74 87
l 81 90
l 12 93
l 16 94
l 20 95
l 31 98
