# Blender v2.78 (sub 0) OBJ File: ''
# www.blender.org
mtllib tardis_demat_off.mtl
o Cube.003
v 0.414570 -0.055344 -0.200000
v 0.556775 0.044229 -0.200000
v 0.556775 0.044229 0.200000
v 0.414570 -0.055344 0.200000
v 0.299854 0.108486 -0.200000
v 0.442059 0.208059 -0.200000
v 0.442059 0.208059 -0.400000
v 0.299854 0.108486 -0.400000
v 0.556775 0.044229 -0.400000
v 0.414570 -0.055344 -0.400000
v -0.162772 -0.215448 -0.200000
v -0.162772 -0.215448 -0.400000
v -0.048057 -0.379279 -0.400000
v -0.048057 -0.379279 -0.200000
v 0.414570 -0.055344 0.400000
v 0.556775 0.044229 0.400000
v 0.442059 0.208059 0.400000
v 0.299854 0.108486 0.400000
v 0.442059 0.208059 0.200000
v 0.299854 0.108486 0.200000
v -0.162772 -0.215448 0.400000
v -0.162772 -0.215448 0.200000
v -0.048057 -0.379279 0.200000
v -0.048057 -0.379279 0.400000
vt 0.5000 0.6875
vt 0.6250 0.6875
vt 0.6250 0.8750
vt 0.5000 0.8750
vt 1.0000 0.6875
vt 0.9375 0.6875
vt 0.9375 0.6250
vt 1.0000 0.6250
vt 1.0000 0.5000
vt 1.0000 0.6250
vt 0.7500 0.6250
vt 0.7500 0.5000
vt 0.5000 0.6250
vt 0.6250 0.6250
vt 0.8750 0.1875
vt 0.8750 0.2500
vt 0.8750 0.2500
vt 0.8750 0.2500
vt 0.7500 0.5000
vt 0.7500 0.6250
vt 0.5000 0.6250
vt 0.5000 0.5000
vt 1.0000 1.0000
vt 0.9375 1.0000
vt 0.9375 0.8750
vt 1.0000 0.8750
vt 0.5000 0.8750
vt 0.5000 0.6250
vt 1.0000 0.6250
vt 0.6250 1.0000
vt 0.5000 1.0000
vt 0.6250 0.2500
vt 0.6250 0.2500
vt 0.6250 0.1875
vt 0.6250 0.2500
vt 0.7500 0.0000
vt 0.5000 0.0000
vt 0.7500 0.0000
vt 1.0000 0.0000
vn 0.5736 -0.8192 0.0000
vn -0.5736 0.8192 -0.0000
vn 0.0000 -0.0000 -1.0000
vn -0.8192 -0.5736 0.0000
vn 0.8191 0.5736 0.0000
vn 0.0000 0.0000 1.0000
vn -0.8191 -0.5736 0.0000
usemtl None.001
s 1
f 1/1/1 2/2/1 3/3/1 4/4/1
f 5/5/2 6/6/2 7/7/2 8/8/2
f 8/9/3 7/10/3 9/11/3 10/12/3
f 10/13/1 9/14/1 2/2/1 1/1/1
f 11/15/4 12/16/4 13/17/4 14/18/4
f 7/7/5 6/6/5 2/2/5 9/14/5
f 15/19/6 16/20/6 17/21/6 18/22/6
f 18/23/2 17/24/2 19/25/2 20/26/2
f 20/26/7 5/27/7 1/28/7 4/29/7
f 4/4/1 3/3/1 16/30/1 15/31/1
f 21/32/4 22/33/4 23/34/4 24/35/4
f 19/25/5 17/24/5 16/30/5 3/3/5
f 23/34/1 4/36/1 15/19/1 24/35/1
f 22/33/3 20/37/3 4/36/3 23/34/3
f 21/32/2 18/22/2 20/37/2 22/33/2
f 24/35/6 15/19/6 18/22/6 21/32/6
f 13/17/1 10/12/1 1/38/1 14/18/1
f 12/16/3 8/9/3 10/12/3 13/17/3
f 11/15/2 5/39/2 8/9/2 12/16/2
f 14/18/6 1/38/6 5/39/6 11/15/6
f 20/26/2 19/25/2 6/6/2 5/5/2
f 2/2/5 6/6/5 19/25/5 3/3/5
o Cube.002
v -0.333333 -0.499332 0.500000
v -0.333333 -0.348834 0.500000
v -0.500000 -0.348834 0.500000
v -0.500000 -0.499332 0.500000
v -0.500000 -0.499332 -0.333333
v -0.500000 -0.348834 -0.333333
v -0.500000 -0.348834 -0.500000
v -0.500000 -0.499332 -0.500000
v 0.333333 -0.499332 -0.500000
v 0.333333 -0.348834 -0.500000
v 0.500000 -0.348834 -0.500000
v 0.500000 -0.499332 -0.500000
v 0.500000 -0.499332 0.333333
v 0.500000 -0.348834 0.333333
v 0.500000 -0.348834 0.500000
v 0.500000 -0.499332 0.500000
v 0.333333 -0.499332 -0.333333
v 0.500000 -0.499332 -0.333333
v 0.333333 -0.348834 0.333333
v 0.333333 -0.348834 0.500000
v 0.333333 -0.205434 -0.333333
v 0.333333 -0.205434 -0.166667
v 0.500000 -0.205434 -0.166667
v 0.500000 -0.205434 -0.333333
v 0.333333 -0.205434 0.166667
v 0.500000 -0.205434 0.166667
v 0.333333 -0.499332 0.333333
v 0.333333 -0.499332 0.166667
v 0.500000 -0.499332 0.166667
v 0.333333 -0.499332 -0.166667
v 0.500000 -0.499332 -0.166667
v -0.500000 -0.499332 0.333333
v -0.500000 -0.205434 0.333333
v -0.500000 -0.205434 0.166667
v -0.500000 -0.499332 0.166667
v -0.500000 -0.205434 -0.166667
v -0.500000 -0.499332 -0.166667
v -0.333333 -0.499332 0.166667
v -0.333333 -0.499332 -0.166667
v -0.166667 -0.499332 -0.166667
v -0.166667 -0.499332 0.166667
v 0.166667 -0.499332 -0.166667
v 0.166667 -0.499332 0.166667
v -0.333333 -0.499332 0.333333
v -0.166667 -0.499332 0.333333
v 0.166667 -0.499332 0.333333
v -0.333333 -0.205434 -0.166667
v -0.333333 -0.205434 0.166667
v -0.166667 -0.205434 0.166667
v -0.166667 -0.205434 -0.166667
v 0.166667 -0.205434 0.166667
v 0.166667 -0.205434 -0.166667
v -0.333333 -0.205434 -0.333333
v -0.166667 -0.205434 -0.333333
v 0.166667 -0.205434 -0.333333
v -0.333333 -0.205434 0.333333
v -0.333333 -0.205434 0.500000
v -0.166667 -0.205434 0.500000
v -0.166667 -0.205434 0.333333
v 0.166667 -0.205434 0.500000
v 0.166667 -0.205434 0.333333
v -0.333333 -0.499332 -0.333333
v -0.333333 -0.499332 -0.500000
v -0.166667 -0.499332 -0.500000
v -0.166667 -0.499332 -0.333333
v 0.166667 -0.499332 -0.500000
v 0.166667 -0.499332 -0.333333
v -0.333333 -0.205434 -0.500000
v -0.166667 -0.205434 -0.500000
v 0.166667 -0.205434 -0.500000
v 0.333333 -0.499332 0.500000
v 0.333333 -0.205434 0.500000
v 0.166667 -0.499332 0.500000
v -0.166667 -0.499332 0.500000
v 0.500000 -0.348834 -0.333333
v 0.333333 -0.348834 -0.333333
v -0.500000 -0.205434 -0.333333
v 0.333333 -0.205434 -0.500000
v 0.333333 -0.205434 0.333333
v -0.333333 -0.348834 -0.333333
v -0.333333 -0.348834 -0.500000
v -0.500000 -0.348834 0.333333
v -0.333333 -0.348834 0.333333
v 0.500000 -0.205434 0.333333
vt 0.0625 0.0000
vt 0.0625 0.5000
vt 0.0000 0.5000
vt 0.0000 0.0000
vt 0.0625 0.0000
vt 0.0625 0.5000
vt 0.0000 0.5000
vt 0.0000 0.0000
vt 0.0625 0.0000
vt 0.0625 0.5000
vt 0.0000 0.5000
vt 0.0000 0.0000
vt 0.0625 0.0000
vt 0.0625 0.5000
vt 0.0000 0.5000
vt 0.0000 0.0000
vt 0.4375 0.8125
vt 0.5000 0.8125
vt 0.5000 1.0000
vt 0.4375 1.0000
vt 0.0625 0.1875
vt 0.0000 0.1875
vt 0.0000 0.0000
vt 0.0625 0.0000
vt 0.4375 0.1875
vt 0.3125 0.1875
vt 0.3125 0.0000
vt 0.4375 0.0000
vt 0.1875 0.1875
vt 0.1875 0.0000
vt 0.0625 0.8125
vt 0.1875 0.8125
vt 0.1875 1.0000
vt 0.0625 1.0000
vt 0.3125 0.8125
vt 0.3125 1.0000
vt 0.4375 0.0000
vt 0.4375 1.0000
vt 0.3125 1.0000
vt 0.3125 0.0000
vt 0.1875 1.0000
vt 0.1875 0.0000
vt 0.4375 0.0000
vt 0.4375 1.0000
vt 0.3125 1.0000
vt 0.3125 0.0000
vt 0.1875 1.0000
vt 0.1875 0.0000
vt 0.1875 0.1875
vt 0.3125 0.1875
vt 0.3125 0.3125
vt 0.1875 0.3125
vt 0.3125 0.6875
vt 0.1875 0.6875
vt 0.0625 0.1875
vt 0.0625 0.3125
vt 0.0625 0.6875
vt 0.3125 0.8125
vt 0.1875 0.8125
vt 0.1875 0.6875
vt 0.3125 0.6875
vt 0.1875 0.3125
vt 0.3125 0.3125
vt 0.4375 0.8125
vt 0.4375 0.6875
vt 0.4375 0.3125
vt 0.0625 0.8125
vt 0.0000 0.8125
vt 0.0000 0.6875
vt 0.0625 0.6875
vt 0.0000 0.3125
vt 0.0625 0.3125
vt 0.4375 0.1875
vt 0.5000 0.1875
vt 0.5000 0.3125
vt 0.4375 0.3125
vt 0.5000 0.6875
vt 0.4375 0.6875
vt 0.4375 0.0000
vt 0.4375 1.0000
vt 0.3125 1.0000
vt 0.3125 0.0000
vt 0.1875 1.0000
vt 0.1875 0.0000
vt 0.4375 0.0000
vt 0.4375 1.0000
vt 0.3125 1.0000
vt 0.3125 0.0000
vt 0.1875 1.0000
vt 0.1875 0.0000
vt 0.5000 0.6875
vt 0.5000 0.3125
vt 0.5000 0.8125
vt 0.5000 0.0000
vt 0.5000 0.5000
vt 0.4375 0.5000
vt 0.5000 0.1875
vt 0.4375 0.1875
vt 0.4375 0.0000
vt 0.5000 0.0000
vt 0.0625 1.0000
vt 0.5000 0.1875
vt 0.5000 0.0000
vt 0.5000 0.5000
vt 0.4375 0.5000
vt 0.0000 0.1875
vt 0.0625 0.1875
vt 0.0625 1.0000
vt 0.5000 1.0000
vt 0.4375 1.0000
vt 0.4375 0.8125
vt 0.5000 0.8125
vt 0.3125 0.0000
vt 0.4375 0.0000
vt 0.5000 0.0000
vt 0.5000 0.5000
vt 0.4375 0.5000
vt 0.0625 1.0000
vt 0.0000 1.0000
vt 0.0000 0.8125
vt 0.0625 0.8125
vt 0.4375 1.0000
vt 0.3125 1.0000
vt 0.1875 1.0000
vt 0.0625 0.0000
vt 0.1875 0.0000
vt 0.0625 1.0000
vt 0.0000 0.1875
vt 0.0625 1.0000
vt 0.0000 0.6875
vt 0.0000 0.8125
vt 0.0000 0.3125
vt 0.5000 0.0000
vt 0.5000 0.5000
vt 0.4375 0.5000
vt 0.0000 1.0000
vt 0.0625 0.0000
vt 0.0625 1.0000
vt 0.5000 0.5000
vt 0.5000 1.0000
vt 0.4375 1.0000
vt 0.4375 0.5000
vt 0.0000 1.0000
vt 0.0000 0.5000
vt 0.0625 0.5000
vt 0.0625 1.0000
vt 0.5000 0.5000
vt 0.5000 1.0000
vt 0.4375 1.0000
vt 0.4375 0.5000
vt 0.0625 0.5000
vt 0.0625 1.0000
vt 0.0000 1.0000
vt 0.0000 0.5000
vt 0.4375 1.0000
vt 0.4375 0.5000
vt 0.5000 0.5000
vt 0.5000 1.0000
vt 0.0625 0.5000
vt 0.0625 1.0000
vt 0.0000 1.0000
vt 0.0000 0.5000
vt 0.0000 1.0000
vt 0.0000 0.5000
vt 0.0625 0.5000
vt 0.0625 1.0000
vt 0.4375 0.5000
vt 0.5000 0.5000
vt 0.5000 1.0000
vt 0.4375 1.0000
vn -0.0000 0.0000 1.0000
vn -1.0000 0.0000 0.0000
vn 0.0000 0.0000 -1.0000
vn 1.0000 0.0000 0.0000
vn 0.0000 -1.0000 0.0000
vn -0.0000 1.0000 0.0000
usemtl None.001
s 1
f 25/40/8 26/41/8 27/42/8 28/43/8
f 29/44/9 30/45/9 31/46/9 32/47/9
f 33/48/10 34/49/10 35/50/10 36/51/10
f 37/52/11 38/53/11 39/54/11 40/55/11
f 41/56/12 33/57/12 36/58/12 42/59/12
f 43/60/13 44/61/13 39/62/13 38/63/13
f 45/64/13 46/65/13 47/66/13 48/67/13
f 46/65/13 49/68/13 50/69/13 47/66/13
f 51/70/12 52/71/12 53/72/12 37/73/12
f 52/71/12 54/74/12 55/75/12 53/72/12
f 42/76/11 48/77/11 47/78/11 55/79/11
f 55/79/11 47/78/11 50/80/11 53/81/11
f 56/82/9 57/83/9 58/84/9 59/85/9
f 59/85/9 58/84/9 60/86/9 61/87/9
f 62/88/12 63/89/12 64/90/12 65/91/12
f 65/91/12 64/90/12 66/92/12 67/93/12
f 68/94/12 62/88/12 65/91/12 69/95/12
f 69/95/12 65/91/12 67/93/12 70/96/12
f 71/97/13 72/98/13 73/99/13 74/100/13
f 74/100/13 73/99/13 75/101/13 76/102/13
f 77/103/13 71/97/13 74/100/13 78/104/13
f 78/104/13 74/100/13 76/102/13 79/105/13
f 80/106/13 81/107/13 82/108/13 83/109/13
f 83/109/13 82/108/13 84/110/13 85/111/13
f 86/112/12 87/113/12 88/114/12 89/115/12
f 89/115/12 88/114/12 90/116/12 91/117/12
f 87/118/10 92/119/10 93/120/10 88/121/10
f 88/121/10 93/120/10 94/122/10 90/123/10
f 95/124/8 96/125/8 84/126/8 97/127/8
f 97/127/8 84/126/8 82/128/8 98/129/8
f 64/90/12 89/115/12 91/117/12 66/92/12
f 63/89/12 86/112/12 89/115/12 64/90/12
f 93/130/13 78/104/13 79/105/13 94/131/13
f 92/132/13 77/103/13 78/104/13 93/130/13
f 36/133/11 35/134/11 99/135/11 42/76/11
f 34/136/13 100/137/13 99/138/13 35/139/13
f 54/74/12 41/56/12 42/59/12 55/75/12
f 61/87/9 60/86/9 101/140/9 29/44/9
f 66/92/12 91/117/12 41/56/12 54/74/12
f 94/131/13 79/105/13 45/64/13 102/141/13
f 40/142/8 39/143/8 44/144/8 95/124/8
f 67/93/12 66/92/12 54/74/12 52/71/12
f 70/96/12 67/93/12 52/71/12 51/70/12
f 76/102/13 75/101/13 49/68/13 46/65/13
f 79/105/13 76/102/13 46/65/13 45/64/13
f 85/111/13 84/110/13 96/145/13 103/146/13
f 91/117/12 90/116/12 33/57/12 41/56/12
f 90/123/10 94/122/10 102/147/10 33/48/10
f 31/148/13 30/149/13 104/150/13 105/151/13
f 61/152/12 29/153/12 86/112/12 63/89/12
f 32/154/10 31/155/10 105/156/10 87/118/10
f 29/153/12 32/154/12 87/113/12 86/112/12
f 106/157/13 27/158/13 26/159/13 107/160/13
f 101/161/13 60/162/13 71/97/13 77/103/13
f 60/162/13 58/163/13 72/98/13 71/97/13
f 56/164/12 59/165/12 62/88/12 68/94/12
f 59/165/12 61/152/12 63/89/12 62/88/12
f 98/129/8 82/128/8 81/166/8 25/40/8
f 28/43/12 56/164/12 68/94/12 25/167/12
f 58/163/13 57/168/13 80/106/13 72/98/13
f 75/101/13 85/111/13 103/146/13 49/68/13
f 97/169/12 70/96/12 51/70/12 95/170/12
f 73/99/13 83/109/13 85/111/13 75/101/13
f 72/98/13 80/106/13 83/109/13 73/99/13
f 98/171/12 69/95/12 70/96/12 97/169/12
f 25/167/12 68/94/12 69/95/12 98/171/12
f 28/172/9 27/173/9 106/174/9 56/82/9
f 95/170/12 51/70/12 37/73/12 40/175/12
f 49/68/13 103/146/13 108/176/13 50/69/13
f 53/81/11 50/80/11 108/177/11 37/52/11
f 34/178/11 102/179/11 45/180/11 100/181/11
f 48/182/10 99/183/10 100/184/10 45/185/10
f 38/186/8 108/187/8 103/188/8 43/189/8
f 43/190/11 103/191/11 96/192/11 44/193/11
f 80/194/9 107/195/9 26/196/9 81/197/9
f 107/198/8 80/199/8 57/200/8 106/201/8
f 92/202/9 105/203/9 104/204/9 77/205/9
f 104/206/10 30/207/10 101/208/10 77/209/10
